<svg xmlns="http://www.w3.org/2000/svg" aria-label="We The Collective" class="navigation_Logo__uSjj7" viewBox="28 44 67 32">
<style>
  g {
    fill: black;
  }

  @media (prefers-color-scheme: dark) {
    g {
      fill: white;
    }
  }
</style>

<g fill="black" fill-rule="evenodd"><path d="M80.661 57.207c.003 0 .256-.004.637-.074.41-.075.805-.296 1.055-.587.372-.43.56-1.058.56-1.86V48.61c0-3.27 2.31-5.225 4.543-5.225h2.75a.06.06 0 0 1 .06.061v4.248a.062.062 0 0 1-.06.063h-1.628c-.433.004-.73.123-.912.364-.201.268-.295.718-.295 1.41v5.887c0 1.738-.607 3.115-1.713 3.885 1.106.769 1.713 2.144 1.713 3.884v5.886c0 .693.094 1.143.295 1.41.18.24.478.361.912.365h1.628c.034 0 .06.029.06.061v4.248a.06.06 0 0 1-.06.063h-2.75c-2.233 0-4.543-1.956-4.543-5.224v-6.076c0-.804-.188-1.428-.56-1.862a1.88 1.88 0 0 0-1.055-.585 4.207 4.207 0 0 0-.637-.076.062.062 0 0 1-.06-.06v-4.069c0-.032.028-.06.06-.062M46.167 62.742l-2.975-10.066h-4.411l-2.974 10.035-2.777-10.035H28l5.531 17.392h4.443l3.013-9.925 3.015 9.925h4.441l5.53-17.392h-5.03zM63.147 52.198c2.562 0 4.679.89 6.295 2.649 1.66 1.748 2.503 3.945 2.503 6.526 0 .486-.06 1.104-.173 1.833l-.023.142H58.97c.599 1.932 2.097 2.871 4.587 2.871 1.618 0 2.858-.551 3.687-1.642l.09-.116 3.83 2.212-.101.149c-1.708 2.47-4.254 3.722-7.575 3.722-2.852 0-5.177-.876-6.906-2.606-1.73-1.733-2.61-3.942-2.61-6.565 0-2.581.87-4.778 2.574-6.529 1.684-1.755 3.907-2.646 6.602-2.646Zm0 4.294c-1.14 0-2.092.292-2.832.868-.688.537-1.167 1.291-1.424 2.24h8.273c-.257-.971-.73-1.731-1.408-2.257-.73-.565-1.605-.851-2.61-.851Z"></path></g></svg>